<?xml version="1.0" encoding="UTF-8"?> <svg xmlns="http://www.w3.org/2000/svg" width="23.797" height="28.803" viewBox="0 0 23.797 28.803"><g id="lugar_icono" data-name="lugar icono" transform="translate(-390.348 -1949.153)"><path id="Trazado_63" data-name="Trazado 63" d="M410.08,1975.827c0,1.176-3.622,2.129-8.09,2.129s-8.091-.953-8.091-2.129,3.622-2.129,8.091-2.129S410.08,1974.651,410.08,1975.827Z" fill="#dcdcdc"></path><path id="Trazado_64" data-name="Trazado 64" d="M402.247,1949.153a11.9,11.9,0,0,0-8.956,19.729l0,0,.024.019a11.929,11.929,0,0,0,3.38,2.669l5.548,4.382,5.524-4.362a11.9,11.9,0,0,0-5.516-22.441Zm0,19.317a7.418,7.418,0,1,1,7.418-7.418A7.418,7.418,0,0,1,402.247,1968.47Z" fill="#9ea2a2"></path></g></svg> 